<svg width="80" height="91" viewBox="0 0 80 91" fill="none" xmlns="http://www.w3.org/2000/svg">
<path d="M41.054 49.5567C40.886 49.5203 40.7136 49.5138 40.5435 49.5393C38.838 49.3407 37.5515 47.8978 37.5486 46.1815C37.5486 45.3589 36.8817 44.692 36.0591 44.692C35.2366 44.692 34.5697 45.3589 34.5697 46.1815C34.5741 49.0476 36.4911 51.5581 39.2547 52.3167V53.8061C39.2547 54.6287 39.9216 55.2956 40.7442 55.2956C41.5667 55.2956 42.2336 54.6287 42.2336 53.8061V52.4069C45.4234 51.7392 47.5914 48.7684 47.2561 45.5269C46.9201 42.2855 44.1892 39.8222 40.9304 39.8215C39.0627 39.8215 37.5486 38.3073 37.5486 36.4397C37.5486 34.5721 39.0627 33.0579 40.9304 33.0579C42.798 33.0579 44.3121 34.5721 44.3121 36.4397C44.3121 37.2623 44.9791 37.9292 45.8016 37.9292C46.6241 37.9292 47.291 37.2623 47.291 36.4397C47.2867 33.4303 45.1783 30.8347 42.2336 30.2136V28.858C42.2336 28.0354 41.5667 27.3685 40.7442 27.3685C39.9216 27.3685 39.2547 28.0354 39.2547 28.858V30.3045C36.1813 31.1438 34.2031 34.1277 34.6264 37.2855C35.0497 40.4433 37.7442 42.8004 40.9304 42.7997C42.7733 42.7997 44.2765 44.2753 44.31 46.1175C44.3441 47.9596 42.8954 49.4898 41.054 49.5567Z" fill="black"/>
<path d="M19.332 41.425C19.332 53.3536 29.0017 63.0234 40.9304 63.0234C52.859 63.0234 62.5287 53.3536 62.5287 41.425C62.5287 29.4964 52.859 19.8267 40.9304 19.8267C29.0076 19.8398 19.3458 29.5022 19.332 41.425ZM40.9304 22.8055C51.2139 22.8055 59.5498 31.1415 59.5498 41.425C59.5498 51.7086 51.2139 60.0445 40.9304 60.0445C30.6468 60.0445 22.3109 51.7086 22.3109 41.425C22.3225 31.1466 30.6519 22.8172 40.9304 22.8055Z" fill="black"/>
<path d="M69.8712 66.6954L58.2037 72.2081C56.5928 69.2118 53.5026 67.3049 50.1019 67.2089L39.3311 66.9129C37.6257 66.8642 35.9523 66.4322 34.4359 65.6489L33.3399 65.0809C27.7283 62.1558 21.0397 62.1631 15.4339 65.0998L15.5023 62.6169C15.5248 61.7944 14.8768 61.1093 14.0543 61.0868L2.24346 60.7617C1.42092 60.7391 0.736564 61.3871 0.714019 62.2097L0.000570894 88.128C-0.0219742 88.9505 0.62602 89.6356 1.44856 89.6582L13.2594 89.9832H13.3001C14.1074 89.9832 14.7677 89.3411 14.7895 88.5345L14.8237 87.2945L17.8921 85.6516C19.0964 85.0036 20.5044 84.8495 21.82 85.2218L40.1428 90.3643C40.1748 90.3738 40.2068 90.3811 40.2395 90.3883C41.5638 90.6654 42.9137 90.8043 44.2664 90.8036C47.1318 90.8051 49.9638 90.1876 52.5681 88.992C52.6321 88.9629 52.6939 88.9287 52.7528 88.8902L79.3191 71.7063C79.981 71.278 80.1948 70.4089 79.8071 69.7223C77.8348 66.2227 73.4603 64.8896 69.8712 66.6954ZM3.01945 86.7215L3.65072 63.7806L12.4834 64.0235L11.8521 86.9651L3.01945 86.7215ZM51.2263 86.3316C47.9907 87.792 44.3769 88.1949 40.8991 87.4844L22.6258 82.3549C20.5691 81.7739 18.3677 82.0146 16.4862 83.0262L14.9183 83.8662L15.3379 68.6132C20.3066 65.3085 26.6789 64.9689 31.9705 67.726L33.0665 68.294C34.9821 69.2831 37.0948 69.8285 39.2497 69.8911L50.0212 70.1871C53.0466 70.2743 55.6161 72.4285 56.2299 75.3928L40.1857 74.9499C39.3631 74.9274 38.6788 75.5761 38.6555 76.3979C38.633 77.2204 39.2817 77.9055 40.1035 77.9281L57.8095 78.4153H57.851C58.6575 78.4146 59.3171 77.7724 59.339 76.9666C59.3571 76.3194 59.3091 75.6714 59.195 75.0343L71.1621 69.3798C71.1738 69.3747 71.1854 69.3689 71.197 69.3631C72.8945 68.5042 74.9468 68.7914 76.3432 70.0838L51.2263 86.3316Z" fill="black"/>
<path d="M42.4198 15.6391V1.48944C42.4198 0.666903 41.7529 0 40.9304 0C40.1078 0 39.4409 0.666903 39.4409 1.48944V15.6391C39.4409 16.4617 40.1078 17.1286 40.9304 17.1286C41.7529 17.1286 42.4198 16.4617 42.4198 15.6391Z" fill="black"/>
<path d="M53.5906 15.6391V8.93659C53.5906 8.11405 52.9237 7.44714 52.1012 7.44714C51.2787 7.44714 50.6118 8.11405 50.6118 8.93659V15.6391C50.6118 16.4616 51.2787 17.1285 52.1012 17.1285C52.9237 17.1285 53.5906 16.4616 53.5906 15.6391Z" fill="black"/>
<path d="M31.249 15.6391V8.93659C31.249 8.11405 30.5821 7.44714 29.7596 7.44714C28.937 7.44714 28.2701 8.11405 28.2701 8.93659V15.6391C28.2701 16.4616 28.937 17.1285 29.7596 17.1285C30.5821 17.1285 31.249 16.4616 31.249 15.6391Z" fill="black"/>
</svg>
