<svg width="80" height="84" viewBox="0 0 80 84" fill="none" xmlns="http://www.w3.org/2000/svg">
<path d="M40.4086 74.7504C43.5916 74.7504 43.5916 79.5855 40.4086 79.5855C18.5421 79.5855 0.815939 61.8605 0.815939 39.9941C0.815939 36.8111 5.65219 36.8111 5.65219 39.9941C5.65219 59.1906 21.212 74.7504 40.4086 74.7504ZM16.6228 0C25.8024 0 33.2445 7.44203 33.2445 16.6228C33.2445 25.8024 25.8024 33.2445 16.6228 33.2445C7.44202 33.2445 0 25.8024 0 16.6228C0 7.44203 7.44202 0 16.6228 0ZM16.6228 4.83506C10.1131 4.83506 4.83506 10.1119 4.83506 16.6228C4.83506 23.1325 10.1119 28.4094 16.6228 28.4094C23.1325 28.4094 28.4094 23.1325 28.4094 16.6228C28.4094 10.1131 23.1325 4.83506 16.6228 4.83506ZM65.7549 80.8076C65.7549 83.9906 60.9187 83.9906 60.9187 80.8076V78.0854C57.8663 77.7386 54.213 76.2612 51.897 74.1625C49.3055 71.8145 52.4707 68.641 54.7712 70.3132C57.5041 72.2991 59.5255 73.3703 63.1159 73.3703C66.11 73.3703 70.0199 71.8988 70.0199 69.2348C70.0199 62.3878 51.5965 68.47 51.5965 56.1656C51.5965 51.2782 56.1632 48.1095 60.9187 47.3767V45.1201C60.9187 41.9371 65.7549 41.9371 65.7549 45.1201V47.3411C70.147 47.8945 72.6174 49.8186 74.5046 51.1773C76.9227 52.9161 74.5865 57.1988 71.343 54.8318C69.8702 53.7569 67.5032 52.0289 63.3368 52.0289C60.3427 52.0289 56.4328 53.5004 56.4328 56.1656C56.4328 63.0114 74.855 56.9292 74.855 69.2348C74.855 74.045 70.4213 77.1982 65.7549 77.9869V80.8076ZM40.4086 5.23769C37.2244 5.23769 37.2244 0.402626 40.4086 0.402626C62.2738 0.402626 80 18.1288 80 39.9941C80 43.1771 75.1638 43.1771 75.1638 39.9941C75.1638 20.7987 59.6039 5.23769 40.4086 5.23769Z" fill="black"/>
</svg>
